<svg width="153" height="199" viewBox="0 0 153 199" fill="none" xmlns="http://www.w3.org/2000/svg">
<g clip-path="url(#clip0_10_863)">
<path d="M127.347 81.7861L106.704 99.2957L33.7512 52.6882L54.3946 35.1732L127.347 81.7861Z" fill="url(#paint0_linear_10_863)"/>
<path d="M119.259 146.317L98.6107 163.832L106.704 99.2957L127.347 81.7861L119.259 146.317Z" fill="url(#paint1_linear_10_863)"/>
<path d="M20.6434 105.376L0 122.891L13.2192 17.515L33.8679 0L20.6434 105.376Z" fill="url(#paint2_linear_10_863)"/>
<path d="M139.781 181.49L119.132 199L0 122.891L20.6434 105.376L139.781 181.49Z" fill="url(#paint3_linear_10_863)"/>
<path d="M139.781 181.49L20.6434 105.376L33.8679 0L153 76.114L139.781 181.49ZM54.3946 35.1732L46.2964 99.699L119.259 146.312L127.352 81.7808L54.3946 35.1732Z" fill="url(#paint4_linear_10_863)"/>
</g>
<defs>
<linearGradient id="paint0_linear_10_863" x1="123.57" y1="59.8575" x2="37.9326" y2="75.1913" gradientUnits="userSpaceOnUse">
<stop stop-color="#D44AD3"/>
<stop offset="0.99" stop-color="#84BAF6"/>
</linearGradient>
<linearGradient id="paint1_linear_10_863" x1="106.511" y1="85.836" x2="119.849" y2="160.347" gradientUnits="userSpaceOnUse">
<stop stop-color="#D24CC5"/>
<stop offset="0.99" stop-color="#5EBBCE"/>
</linearGradient>
<linearGradient id="paint2_linear_10_863" x1="44.2025" y1="56.8852" x2="-9.92529" y2="66.5771" gradientUnits="userSpaceOnUse">
<stop stop-color="#D24CC5"/>
<stop offset="0.99" stop-color="#5EBBCE"/>
</linearGradient>
<linearGradient id="paint3_linear_10_863" x1="132.727" y1="141.261" x2="7.46344" y2="163.691" gradientUnits="userSpaceOnUse">
<stop stop-color="#D44AD3"/>
<stop offset="0.99" stop-color="#84BAF6"/>
</linearGradient>
<linearGradient id="paint4_linear_10_863" x1="19.3733" y1="78.2945" x2="154.242" y2="103.222" gradientUnits="userSpaceOnUse">
<stop stop-color="#D24CC5"/>
<stop offset="0.99" stop-color="#5EBBCE"/>
</linearGradient>
<clipPath id="clip0_10_863">
<rect width="153" height="199" fill="white"/>
</clipPath>
</defs>
</svg>
