<svg width="92" height="88" viewBox="0 0 92 88" fill="none" xmlns="http://www.w3.org/2000/svg">
<g clip-path="url(#clip0_10_875)">
<path d="M31.9727 87.5722C32.4135 87.6555 32.8489 87.7277 33.2842 87.7833C33.3944 87.8 33.5046 87.8222 33.6149 87.8389C33.6865 87.85 33.7581 87.8389 33.8298 87.85C34.7225 87.95 35.6042 87.9944 36.4804 87.9944C36.541 87.9944 36.6016 88.0056 36.6622 88.0056C36.7504 88.0056 36.8331 87.9889 36.9212 87.9889C37.7037 87.9722 38.4807 87.9222 39.2412 87.8222C39.2522 87.8222 39.2577 87.8222 39.2688 87.8222C39.3073 87.8222 39.3459 87.8055 39.379 87.8C40.0403 87.7111 40.6905 87.5777 41.3297 87.4277C41.4179 87.4054 41.5116 87.3999 41.5998 87.3777C41.6769 87.361 41.743 87.3277 41.8202 87.311C42.4649 87.1443 43.0987 86.9554 43.7214 86.722C43.7324 86.722 43.7379 86.722 43.7489 86.7109C44.2063 86.5442 44.6582 86.3553 45.099 86.1552L77.9038 71.2579C77.4519 71.4635 76.989 71.6525 76.5261 71.8247C75.9034 72.0525 75.2697 72.2415 74.625 72.4137C74.4597 72.4582 74.2999 72.4971 74.1345 72.536C73.4953 72.686 72.845 72.8138 72.1838 72.9083C72.1342 72.9138 72.0901 72.9249 72.0405 72.9305C71.28 73.0305 70.503 73.075 69.7205 73.0972C69.5717 73.0972 69.4229 73.1027 69.2742 73.1083C68.4035 73.1083 67.5163 73.0638 66.6235 72.9638C66.4417 72.9416 66.2598 72.9249 66.078 72.8971C65.6426 72.8416 65.2073 72.7693 64.7665 72.686C64.5681 72.6471 64.3697 72.6138 64.1658 72.5749C63.5431 72.4415 62.9204 72.2915 62.2922 72.1137C62.2812 72.1137 62.2757 72.1137 62.2646 72.1081C61.5207 71.897 60.7768 71.6302 60.0328 71.3469C59.8455 71.2746 59.6581 71.2024 59.4762 71.1301C58.7323 70.8301 57.9829 70.5078 57.2389 70.1355H57.2279C56.484 69.7577 55.7345 69.3409 54.9906 68.8964C54.8032 68.7853 54.6214 68.6741 54.434 68.5574C53.6901 68.0962 52.9462 67.6128 52.2077 67.0794C51.2323 66.3737 50.2955 65.6013 49.3808 64.8067C48.984 64.4622 48.5983 64.1122 48.2125 63.751C47.9756 63.5287 47.7331 63.3064 47.5016 63.0786C47.0002 62.5896 46.5208 62.0784 46.0413 61.5672C45.8925 61.4061 45.7327 61.2505 45.5839 61.0894C45.4572 60.9449 45.336 60.7893 45.2092 60.6448C44.5645 59.9114 43.9418 59.1557 43.3411 58.3777C43.0876 58.0499 42.8397 57.7109 42.5972 57.3775C42.217 56.8552 41.8422 56.3273 41.4785 55.7884C41.225 55.4105 40.9715 55.0271 40.7291 54.6381C40.4315 54.1658 40.145 53.6935 39.8584 53.2156C39.6159 52.7989 39.3735 52.3822 39.142 51.9599C38.894 51.5098 38.6516 51.0541 38.4146 50.5929C38.1887 50.1484 37.9627 49.7039 37.7478 49.2593C37.5329 48.8037 37.3235 48.3481 37.1196 47.8869C36.9157 47.4312 36.7173 46.9756 36.53 46.5144C36.3371 46.0365 36.1497 45.5586 35.9734 45.0808C35.8026 44.6251 35.6373 44.1695 35.4774 43.7083C35.2956 43.1804 35.1303 42.647 34.965 42.1191C34.8272 41.6801 34.6949 41.2412 34.5737 40.8022C34.3974 40.1743 34.2431 39.5464 34.0943 38.9185C34.0006 38.524 33.9014 38.135 33.8187 37.7405C33.5818 36.6347 33.3779 35.5234 33.2236 34.4121C33.1024 33.5397 33.0087 32.6617 32.937 31.7894C32.915 31.5282 32.904 31.267 32.8875 31.0114C32.8544 30.4947 32.8323 29.9779 32.8158 29.4667C32.7772 28.2331 32.7717 27.0051 32.8434 25.7938C33.0307 22.5654 33.5983 19.4259 34.5902 16.4642C36.9653 9.31844 41.3904 4.3675 46.8679 1.87814L14.0742 16.7476C8.59659 19.237 4.17706 24.1879 1.79647 31.3337C0.810062 34.2954 0.242467 37.4349 0.0551057 40.6633C-0.0165325 41.8746 -0.0110219 43.1026 0.0275525 44.3362C0.0275525 44.4862 0.0165313 44.6362 0.0275525 44.7863C0.0440844 45.153 0.0771482 45.5197 0.0991907 45.8865C0.115723 46.1476 0.126744 46.4032 0.148786 46.6644C0.220425 47.5312 0.308595 48.3981 0.429829 49.2649V49.2816C0.589637 50.3929 0.79353 51.5042 1.03049 52.61C1.05253 52.71 1.06355 52.81 1.08559 52.91C1.15172 53.2045 1.23989 53.4935 1.30602 53.7824C1.45481 54.4103 1.6091 55.0438 1.78544 55.6661C1.82953 55.8273 1.86259 55.9884 1.90668 56.144C1.98934 56.4274 2.09404 56.7052 2.1767 56.9886C2.34202 57.522 2.50734 58.0499 2.68919 58.5722C2.75532 58.7611 2.80491 58.9556 2.87104 59.1445C2.96472 59.4113 3.08044 59.678 3.17963 59.9447C3.36148 60.4281 3.54334 60.906 3.74172 61.3839C3.82438 61.5839 3.89051 61.7839 3.97316 61.984C4.08338 62.2451 4.21012 62.5007 4.32585 62.7563C4.52974 63.2175 4.73914 63.6732 4.95406 64.1288C5.04774 64.3289 5.1304 64.5289 5.22959 64.7289C5.35082 64.979 5.4941 65.2179 5.62084 65.468C5.8578 65.9292 6.09476 66.3792 6.34274 66.8349C6.45295 67.0294 6.54663 67.235 6.65684 67.4294C6.78359 67.6573 6.93237 67.8684 7.06463 68.0962C7.34567 68.5741 7.63222 69.0464 7.9298 69.5187C8.05654 69.7243 8.17227 69.9355 8.30452 70.1355C8.42576 70.3189 8.55801 70.4911 8.67924 70.669C9.04295 71.2079 9.41767 71.7358 9.7979 72.2581C9.95771 72.4748 10.101 72.7082 10.2663 72.9249C10.3545 73.0416 10.4537 73.1472 10.5418 73.2583C11.1425 74.0362 11.7652 74.7919 12.4099 75.5254C12.5146 75.6421 12.6028 75.7699 12.7075 75.8866C12.7351 75.9144 12.7626 75.9422 12.7902 75.9699C12.9335 76.1311 13.0933 76.2867 13.2365 76.4423C13.716 76.959 14.2009 77.4702 14.7024 77.9592C14.9338 78.187 15.1763 78.4093 15.4132 78.6316C15.6943 78.8927 15.9698 79.1706 16.2564 79.4262C16.3611 79.5206 16.4768 79.5984 16.5815 79.6873C17.4963 80.4819 18.4331 81.2543 19.4084 81.96C20.1469 82.4934 20.8908 82.9768 21.6347 83.4436C21.8221 83.5603 22.0095 83.6714 22.1913 83.7825C22.9352 84.2271 23.6792 84.6438 24.4286 85.0161H24.4396C25.1836 85.394 25.933 85.7162 26.677 86.0163C26.8643 86.0941 27.0517 86.1663 27.2335 86.233C27.9775 86.5164 28.7214 86.7775 29.4653 86.9943C29.4653 86.9943 29.4819 86.9943 29.4874 86.9998C30.1156 87.1832 30.7383 87.3277 31.361 87.461C31.5594 87.5055 31.7578 87.5333 31.9562 87.5722H31.9727Z" fill="url(#paint0_linear_10_875)"/>
<path d="M91.9339 47.3423C91.7465 50.5707 91.1789 53.7157 90.187 56.6774C84.5772 73.5195 67.5824 78.1704 52.2243 67.0572C39.5773 57.8943 31.9892 40.88 32.8599 25.7604C33.0473 22.532 33.6148 19.3926 34.6068 16.4309C40.2111 -0.422301 57.2114 -5.07318 72.5695 6.05115C85.2164 15.2029 92.8045 32.2117 91.9339 47.3423Z" fill="url(#paint1_linear_10_875)"/>
</g>
<defs>
<linearGradient id="paint0_linear_10_875" x1="42.3714" y1="1.76973" x2="36.6233" y2="88.2812" gradientUnits="userSpaceOnUse">
<stop stop-color="#1816EE"/>
<stop offset="0.99" stop-color="#DFAB77"/>
</linearGradient>
<linearGradient id="paint1_linear_10_875" x1="64.577" y1="0.76709" x2="59.794" y2="72.7528" gradientUnits="userSpaceOnUse">
<stop stop-color="#FFC0E8"/>
<stop offset="0.99" stop-color="#859EE0"/>
</linearGradient>
<clipPath id="clip0_10_875">
<rect width="92" height="88" fill="white"/>
</clipPath>
</defs>
</svg>
