<svg width="41" height="75" viewBox="0 0 41 75" fill="none" xmlns="http://www.w3.org/2000/svg">
<path d="M10.8875 67.8825C10.9534 68.0441 11.0192 68.2057 11.068 68.3673C11.0949 68.4579 11.1144 68.551 11.1363 68.6416C11.1705 68.7861 11.2046 68.933 11.2266 69.0775C11.2412 69.1754 11.2485 69.2734 11.2558 69.3713C11.268 69.5109 11.2753 69.648 11.2729 69.7876C11.2729 69.8856 11.2656 69.9811 11.2583 70.0766C11.2485 70.221 11.229 70.3631 11.2046 70.5051C11.1875 70.6055 11.168 70.7084 11.1436 70.8063C11.1217 70.8945 11.0973 70.9802 11.0705 71.0659C11.0192 71.225 10.968 71.3867 10.8973 71.5385L40.1722 7.51038C40.2186 7.40998 40.26 7.30958 40.2966 7.20674C40.3161 7.15041 40.3283 7.09164 40.3454 7.03777C40.3722 6.95206 40.399 6.86636 40.421 6.7782C40.4332 6.73167 40.4502 6.68515 40.46 6.63862C40.4722 6.5872 40.4698 6.53087 40.4795 6.477C40.5039 6.33497 40.521 6.19294 40.5332 6.04847C40.5381 5.99459 40.5502 5.94562 40.5527 5.89174C40.5527 5.84767 40.5454 5.80359 40.5478 5.75951C40.5478 5.62238 40.5405 5.4828 40.5307 5.34322C40.5234 5.24527 40.5161 5.14732 40.5015 5.04937C40.4795 4.90244 40.4478 4.75796 40.4112 4.61348C40.3893 4.52043 40.3722 4.42983 40.3429 4.33922C40.2942 4.1776 40.2283 4.01598 40.1625 3.85681C40.1307 3.78335 40.1088 3.70744 40.0746 3.63397C39.9649 3.40134 39.8405 3.17116 39.6942 2.94587V2.94097C39.5551 2.73282 39.4015 2.52713 39.2332 2.32633C39.2161 2.30429 39.1966 2.2847 39.1796 2.26266C39.1454 2.22348 39.1064 2.1892 39.0722 2.15247C38.9722 2.04227 38.8698 1.93452 38.7625 1.83412C38.743 1.81453 38.7259 1.79494 38.7064 1.77535C38.6649 1.73617 38.6161 1.70189 38.5747 1.66271C38.4918 1.58925 38.4064 1.51578 38.321 1.44722C38.2942 1.42518 38.2674 1.40069 38.2405 1.37865C38.1966 1.34437 38.1503 1.31743 38.1064 1.2856C38.0259 1.22683 37.943 1.16806 37.8601 1.11174C37.8284 1.0897 37.7967 1.06521 37.7625 1.04317C37.7186 1.01623 37.6723 0.994195 37.6284 0.967259C37.5406 0.913386 37.4528 0.86441 37.365 0.815435C37.3284 0.795844 37.2918 0.771357 37.2528 0.751766C37.2137 0.732176 37.1698 0.715035 37.1308 0.695445C37.0308 0.646469 36.9284 0.599942 36.8284 0.555864C36.7845 0.536274 36.743 0.514235 36.6991 0.497094C36.6674 0.48485 36.6357 0.475055 36.604 0.462811C36.465 0.408938 36.326 0.359962 36.1845 0.315885C36.1406 0.301192 36.0967 0.281602 36.0528 0.269358C36.0382 0.26446 36.026 0.26446 36.0113 0.259563C35.7772 0.190997 35.543 0.139573 35.304 0.0979436C35.2845 0.0954948 35.265 0.0881485 35.2431 0.083251C35.1772 0.0734559 35.1089 0.0685583 35.0431 0.0587632C34.9601 0.0465193 34.8797 0.0367242 34.7967 0.0293779C34.7016 0.0195828 34.6065 0.0171341 34.5089 0.0122365C34.4284 0.00733896 34.3455 0.00244141 34.265 0.00244141C34.1675 0.00244141 34.0724 0.00489018 33.9772 0.00978773C33.8967 0.0122365 33.8187 0.0146853 33.7382 0.0195828C33.6407 0.0269292 33.5455 0.0416218 33.448 0.0514169C33.3724 0.061212 33.2943 0.0685583 33.2187 0.0808022C33.1212 0.0979436 33.0236 0.119983 32.9285 0.142022C32.8553 0.159163 32.7821 0.171407 32.7114 0.190997C32.6114 0.217934 32.5139 0.252216 32.4163 0.28405C32.3504 0.306089 32.2846 0.323231 32.2187 0.347719C32.1114 0.389348 32.0065 0.435874 31.9017 0.48485C31.8505 0.509338 31.7968 0.528928 31.7456 0.553416C31.5919 0.629328 31.4407 0.715035 31.2944 0.808088C30.9188 1.04807 30.5944 1.32723 30.3212 1.63822C30.0481 1.94922 29.8286 2.29205 29.6627 2.65691L0.385353 66.6826C0.717052 65.9553 1.26582 65.3137 2.01702 64.8337C2.16336 64.7407 2.31458 64.655 2.46823 64.5791C2.51945 64.5546 2.57311 64.535 2.62432 64.5105C2.7292 64.4615 2.83408 64.415 2.94139 64.3734C3.0048 64.3489 3.07065 64.3317 3.13651 64.3097C3.2365 64.2779 3.33406 64.2436 3.43406 64.2167C3.50479 64.1971 3.57796 64.1848 3.64869 64.1677C3.74625 64.1456 3.84381 64.1236 3.94137 64.1065C4.01697 64.0942 4.09502 64.0869 4.17063 64.0771C4.26819 64.0648 4.36331 64.0526 4.46087 64.0428C4.53891 64.0379 4.6194 64.0354 4.69745 64.033C4.795 64.0305 4.89012 64.0256 4.98768 64.0256C5.06817 64.0256 5.14865 64.033 5.22914 64.0354C5.3267 64.0403 5.42182 64.0452 5.51938 64.055C5.59986 64.0624 5.68279 64.0746 5.76327 64.0844C5.85108 64.0967 5.93888 64.1089 6.02424 64.1236C6.26082 64.1652 6.4974 64.2191 6.73154 64.2852C6.79008 64.3024 6.84617 64.3219 6.90471 64.3415C7.04617 64.3856 7.18519 64.4346 7.32421 64.4885C7.39982 64.5179 7.47299 64.5497 7.5486 64.5815C7.65103 64.6256 7.75103 64.6721 7.85103 64.7211C7.92908 64.7603 8.00712 64.7995 8.08517 64.8411C8.17297 64.8901 8.26077 64.9415 8.34858 64.9929C8.42662 65.0394 8.50467 65.0884 8.58028 65.1374C8.6632 65.1937 8.74613 65.25 8.82661 65.3088C8.89978 65.3627 8.97295 65.4165 9.04368 65.4729C9.13149 65.5414 9.21441 65.6149 9.29733 65.6884C9.36075 65.7447 9.42416 65.801 9.48757 65.8598C9.59489 65.9626 9.69733 66.0704 9.79976 66.1806C9.85342 66.2393 9.90952 66.2932 9.96073 66.3544C10.1315 66.5552 10.2851 66.7609 10.4217 66.9715C10.568 67.1968 10.6924 67.427 10.8022 67.6596C10.8363 67.7331 10.8583 67.8066 10.89 67.88L10.8875 67.8825Z" fill="url(#paint0_linear_10_895)"/>
<path d="M9.95829 66.3569C11.9631 68.7224 11.6534 71.8666 9.26807 73.3849C6.88276 74.9031 3.32187 74.2248 1.31704 71.8617C-0.682915 69.5036 -0.368288 66.3544 2.01702 64.8362C4.40233 63.3179 7.95834 63.9987 9.95829 66.3593V66.3569Z" fill="url(#paint1_linear_10_895)"/>
<defs>
<linearGradient id="paint0_linear_10_895" x1="12.86" y1="5.26419" x2="28.436" y2="67.2093" gradientUnits="userSpaceOnUse">
<stop stop-color="#70EBB7"/>
<stop offset="0.99" stop-color="#D44AD3"/>
</linearGradient>
<linearGradient id="paint1_linear_10_895" x1="0.74802" y1="66.1942" x2="10.6773" y2="72.1244" gradientUnits="userSpaceOnUse">
<stop stop-color="#9083EF"/>
<stop offset="0.99" stop-color="#F5C4BE"/>
</linearGradient>
</defs>
</svg>
