<svg width="74" height="56" viewBox="0 0 74 56" fill="none" xmlns="http://www.w3.org/2000/svg">
<path d="M11.2087 51.1412C11.1813 51.3269 11.1539 51.5161 11.1094 51.6915C11.0854 51.7913 11.0511 51.8876 11.0203 51.9839C10.9723 52.1387 10.9244 52.2934 10.8627 52.4413C10.8216 52.5411 10.7736 52.634 10.7257 52.7303C10.6606 52.8679 10.5886 52.9986 10.5133 53.1258C10.4585 53.2152 10.4002 53.3012 10.342 53.3872C10.2529 53.5145 10.157 53.6383 10.0542 53.7552C9.98229 53.8412 9.91035 53.9238 9.83156 54.0029C9.76304 54.0717 9.6911 54.137 9.61916 54.2024C9.48213 54.3228 9.3451 54.4432 9.19437 54.5463L71.9098 11.2666C72.0057 11.1978 72.1016 11.129 72.1941 11.0534C72.2421 11.0121 72.2866 10.9639 72.3346 10.9227C72.4065 10.8573 72.4785 10.792 72.547 10.7232C72.5847 10.6853 72.6258 10.6544 72.6635 10.6166C72.7046 10.5753 72.732 10.5237 72.7697 10.479C72.8724 10.362 72.9684 10.2382 73.0574 10.1075C73.0917 10.0593 73.1328 10.0215 73.1636 9.97335C73.1876 9.93552 73.2082 9.88737 73.2321 9.84953C73.3109 9.72227 73.3795 9.58813 73.4445 9.45055C73.4925 9.35424 73.5405 9.26137 73.5816 9.16163C73.6432 9.01373 73.6912 8.85895 73.7392 8.70417C73.77 8.60786 73.8043 8.51156 73.8282 8.41181C73.8728 8.23295 73.9002 8.04722 73.9276 7.86148C73.9413 7.77549 73.9584 7.69295 73.9687 7.60696C73.9961 7.32836 74.0064 7.04631 73.9961 6.75395C73.9961 6.75395 73.9961 6.75051 73.9961 6.74707C73.9858 6.47535 73.955 6.20018 73.9104 5.92158C73.907 5.89062 73.9002 5.86311 73.8933 5.83215C73.883 5.77712 73.8659 5.72553 73.8556 5.6705C73.8214 5.51228 73.7871 5.35406 73.7426 5.19928C73.7357 5.17176 73.7289 5.14081 73.722 5.11329C73.7049 5.05138 73.6809 4.99634 73.6604 4.93443C73.6227 4.82092 73.585 4.70398 73.5439 4.59392C73.5302 4.55952 73.5199 4.52169 73.5062 4.48385C73.4856 4.42882 73.4548 4.37722 73.4343 4.32219C73.3897 4.22245 73.3486 4.1227 73.3007 4.02295C73.2835 3.98512 73.2664 3.94385 73.2493 3.90601C73.2253 3.85442 73.1945 3.8097 73.1671 3.76155C73.1157 3.66524 73.0609 3.56549 73.0061 3.47263C72.9821 3.43135 72.9615 3.39007 72.9375 3.35224C72.9101 3.31097 72.8827 3.27314 72.8553 3.23186C72.7902 3.12868 72.7217 3.02892 72.6498 2.93262C72.6189 2.89134 72.5949 2.84663 72.5607 2.80535C72.5401 2.77784 72.5127 2.75032 72.4922 2.72281C72.3928 2.59555 72.2901 2.47173 72.1839 2.35134C72.1496 2.31351 72.1222 2.27222 72.0879 2.23439C72.0777 2.22407 72.064 2.21375 72.0537 2.20343C71.8721 2.01082 71.6837 1.82853 71.485 1.65655C71.4679 1.64279 71.4542 1.6256 71.437 1.6084C71.3822 1.56025 71.3206 1.51897 71.2658 1.47425C71.1972 1.41922 71.1253 1.36076 71.0534 1.30916C70.9677 1.24725 70.8821 1.18878 70.7964 1.13374C70.7245 1.08559 70.6491 1.03399 70.5738 0.989278C70.4847 0.934245 70.3922 0.886098 70.2997 0.834505C70.2243 0.79323 70.149 0.748511 70.0736 0.710676C69.9777 0.662522 69.8818 0.621246 69.7858 0.579972C69.7105 0.545576 69.6317 0.511188 69.5563 0.480233C69.457 0.442398 69.3542 0.408003 69.2514 0.373608C69.176 0.349531 69.1007 0.318575 69.0219 0.297937C68.9157 0.266982 68.8061 0.242901 68.6964 0.218824C68.6245 0.201627 68.5491 0.180991 68.4772 0.167233C68.3539 0.143157 68.2305 0.13284 68.1072 0.115642C68.0455 0.108763 67.9839 0.0984421 67.9222 0.091563C67.7372 0.0778049 67.5488 0.0709229 67.3604 0.0778019C66.8774 0.0915601 66.4183 0.170674 65.9935 0.308256C65.5687 0.445837 65.1748 0.641892 64.815 0.889539L2.09961 44.1693C2.81217 43.6774 3.67546 43.385 4.64152 43.3575C4.82994 43.3541 5.01836 43.3575 5.20335 43.3713C5.26501 43.3747 5.32668 43.3885 5.38834 43.3954C5.51167 43.4091 5.635 43.4229 5.75833 43.4435C5.83027 43.4573 5.9022 43.4779 5.97415 43.4951C6.08377 43.5192 6.1934 43.5433 6.30302 43.5742C6.37839 43.5948 6.45376 43.6258 6.52912 43.6499C6.6319 43.6843 6.73467 43.7152 6.83402 43.7565C6.91281 43.7875 6.98817 43.8219 7.06354 43.8563C7.15946 43.8975 7.25881 43.9388 7.3513 43.987C7.42667 44.0248 7.50204 44.0695 7.57741 44.1108C7.6699 44.1624 7.7624 44.2105 7.85147 44.2656C7.92683 44.3103 7.99878 44.3619 8.07072 44.41C8.15636 44.4685 8.24543 44.527 8.33107 44.5889C8.40301 44.6405 8.47153 44.6989 8.54004 44.754C8.61541 44.8125 8.69078 44.8744 8.76272 44.9363C8.96141 45.1083 9.14983 45.2905 9.33139 45.4832C9.37593 45.5313 9.41704 45.5829 9.46158 45.6311C9.56777 45.7514 9.67054 45.8753 9.76989 46.0025C9.8247 46.0713 9.87609 46.1436 9.92748 46.2123C9.99942 46.3121 10.0679 46.4118 10.133 46.5116C10.1844 46.5907 10.2358 46.6732 10.2838 46.7558C10.3386 46.8521 10.3934 46.9484 10.4448 47.0447C10.4927 47.1307 10.5373 47.2201 10.5784 47.3096C10.6263 47.4059 10.6709 47.5056 10.712 47.6088C10.7497 47.6982 10.7873 47.7911 10.8216 47.8805C10.8627 47.994 10.9038 48.1075 10.9381 48.221C10.9655 48.3105 10.9963 48.3964 11.0203 48.4859C11.0648 48.6407 11.0991 48.7989 11.1333 48.9571C11.1505 49.0396 11.1745 49.1222 11.1882 49.2082C11.2361 49.4902 11.2635 49.7688 11.2738 50.0406C11.2841 50.3329 11.2738 50.6149 11.2464 50.8935C11.2361 50.9795 11.219 51.0621 11.2053 51.1481L11.2087 51.1412Z" fill="url(#paint0_linear_10_898)"/>
<path d="M11.1882 49.2013C11.7466 52.5239 9.71508 55.2755 6.65245 55.3581C3.58982 55.4406 0.650514 52.8197 0.092115 49.5005C-0.466284 46.1883 1.57205 43.4332 4.63468 43.3506C7.69731 43.2681 10.6298 45.889 11.1882 49.2013Z" fill="url(#paint1_linear_10_898)"/>
<defs>
<linearGradient id="paint0_linear_10_898" x1="47.6383" y1="-6.1403" x2="27.5667" y2="60.1577" gradientUnits="userSpaceOnUse">
<stop stop-color="#70EBB7"/>
<stop offset="0.99" stop-color="#D44AD3"/>
</linearGradient>
<linearGradient id="paint1_linear_10_898" x1="2.61617" y1="43.8346" x2="8.57641" y2="54.9017" gradientUnits="userSpaceOnUse">
<stop stop-color="#9083EF"/>
<stop offset="0.99" stop-color="#F5C4BE"/>
</linearGradient>
</defs>
</svg>
