<svg width="140" height="24" viewBox="0 0 140 24" fill="none" xmlns="http://www.w3.org/2000/svg">
<g id="Group 1">
<path id="Vector" d="M9.03292 11.6629C8.65834 11.3677 8.2588 11.1248 7.84563 10.9432C7.44609 10.7684 6.95346 10.5982 6.38366 10.4393L4.66742 9.9648C3.75936 9.71508 3.65267 9.28829 3.65267 8.9909C3.65267 8.84561 3.68899 8.62768 3.99773 8.39613C4.26107 8.19862 4.61067 8.09874 5.042 8.09874C5.76164 8.09874 6.31101 8.32348 6.72418 8.78886C7.06016 9.17024 7.4756 9.36321 7.95914 9.36321C8.40182 9.36321 8.78547 9.2043 9.10102 8.89329C9.41884 8.58001 9.58002 8.19862 9.58002 7.76048C9.58002 7.37229 9.43474 7.00906 9.14189 6.67535C8.64472 6.13506 8.07492 5.7287 7.45063 5.46764C6.83087 5.20884 5.99773 5.07944 4.97162 5.07944C4.18842 5.07944 3.43246 5.23381 2.72191 5.53574C2 5.84221 1.39614 6.30078 0.92395 6.89783C0.438139 7.51304 0.190692 8.20997 0.190692 8.97047C0.190692 9.99431 0.506243 10.8297 1.12599 11.4517C1.72077 12.0465 2.65153 12.521 3.8933 12.8615L5.60273 13.3337C6.05221 13.4676 6.37004 13.6288 6.54484 13.815C6.70148 13.9807 6.77639 14.1941 6.77639 14.471C6.77639 14.6345 6.73099 14.8819 6.34506 15.1407C6.00908 15.3655 5.58456 15.479 5.08513 15.479C4.5857 15.479 4.14302 15.3995 3.79342 15.2406C3.45062 15.084 3.13053 14.8184 2.85585 14.462C2.56073 14.0511 2.11351 13.8331 1.56867 13.8331C1.12372 13.8331 0.744609 13.9875 0.447219 14.2894C0.14983 14.5914 0 14.9523 0 15.3655C0 15.8309 0.177072 16.269 0.515324 16.6527C0.978434 17.2179 1.61862 17.672 2.41544 18.0034C3.20091 18.3303 4.07492 18.496 5.01022 18.496C5.63224 18.496 6.24972 18.4075 6.85131 18.2304C7.4529 18.0533 8.00908 17.8014 8.50624 17.479C9.0193 17.1475 9.43927 16.7162 9.7571 16.1986C10.0795 15.6697 10.2406 15.0885 10.2406 14.4688C10.2406 13.849 10.1408 13.3155 9.94325 12.8524C9.7412 12.378 9.43701 11.9784 9.03519 11.6629" fill="#0081A8"/>
<path id="Vector_2" d="M22.6016 5.07944C22.143 5.07944 21.7412 5.24516 21.4098 5.57206C21.2055 5.77411 21.0624 6.00112 20.983 6.25538C20.7174 6.01928 20.4086 5.80816 20.059 5.62428C19.3803 5.26332 18.5426 5.08171 17.571 5.08171C16.8536 5.08171 16.1271 5.227 15.4098 5.51531C14.6992 5.80135 14.0341 6.21452 13.4325 6.74346C12.8195 7.28148 12.3178 7.99885 11.9364 8.87286C11.5573 9.7446 11.3644 10.7253 11.3644 11.7855C11.3644 12.6504 11.4892 13.4654 11.7367 14.2077C11.9864 14.9546 12.3224 15.597 12.7401 16.1169C13.1532 16.6322 13.6368 17.0794 14.1748 17.4427C14.7151 17.8082 15.2804 18.0783 15.8525 18.2463C16.4223 18.4143 16.9989 18.5006 17.5664 18.5006C18.5925 18.5006 19.5165 18.2508 20.3133 17.7605C20.5358 17.622 20.7333 17.479 20.9013 17.3314V21.3042C20.9013 21.765 21.0715 22.1668 21.4052 22.4937C21.7367 22.8207 22.1385 22.9864 22.5971 22.9864C23.0556 22.9864 23.4574 22.8206 23.7844 22.4915C24.1135 22.1623 24.2792 21.7628 24.2792 21.3042V6.76843C24.2792 6.30759 24.1135 5.90805 23.7844 5.58114C23.4552 5.25197 23.0556 5.08625 22.5971 5.08625M16.7855 15.2474C16.4177 15.0885 16.0772 14.8592 15.7707 14.5641C15.4711 14.2758 15.2236 13.8853 15.0329 13.4063C14.84 12.9205 14.7424 12.3757 14.7424 11.7877C14.7424 11.1998 14.84 10.6663 15.0329 10.1873C15.2236 9.71054 15.4733 9.32008 15.773 9.02723C16.0772 8.72984 16.4177 8.49829 16.7855 8.34165C17.1487 8.18501 17.521 8.10555 17.891 8.10555C18.2974 8.10555 18.6833 8.17365 19.0397 8.31213C19.3939 8.44834 19.7276 8.65947 20.0295 8.93642C20.3224 9.20657 20.563 9.58568 20.7401 10.0624C20.924 10.5528 21.017 11.1339 21.017 11.7877C21.017 12.4415 20.924 13.0136 20.7401 13.5085C20.5607 13.9898 20.3224 14.3712 20.0341 14.6413C19.7344 14.9205 19.4007 15.1317 19.0397 15.2701C18.3383 15.5403 17.5369 15.5698 16.7855 15.2474Z" fill="#0081A8"/>
<path id="Vector_3" d="M36.8763 5.14981C36.4177 5.14981 36.0159 5.31781 35.6845 5.65152C35.353 5.98296 35.185 6.38478 35.185 6.84335V12.3621C35.1124 12.7662 34.9308 13.2043 34.6447 13.6651C34.3542 14.1351 33.9387 14.5596 33.4075 14.9251C32.8922 15.2815 32.3678 15.454 31.8002 15.454C31.1782 15.454 30.6924 15.2429 30.3178 14.8116C29.9342 14.3689 29.7389 13.6334 29.7389 12.63V6.84561C29.7389 6.38704 29.571 5.98523 29.2372 5.65152C28.9058 5.32008 28.504 5.14981 28.0431 5.14981C27.5823 5.14981 27.1828 5.32007 26.8536 5.65378C26.5267 5.98523 26.361 6.38704 26.361 6.84561V12.7798C26.361 13.7469 26.4972 14.6141 26.7673 15.3519C27.042 16.1078 27.4325 16.7185 27.9251 17.168C28.4086 17.6107 28.9626 17.9421 29.5687 18.1555C30.168 18.3666 30.8286 18.4733 31.5346 18.4733C32.1385 18.4733 32.7219 18.3575 33.2713 18.1305C33.8161 17.9035 34.2747 17.6152 34.6311 17.2701C34.8354 17.0726 35.0216 16.8729 35.185 16.6731V16.7684C35.185 17.2293 35.353 17.6288 35.6867 17.958C36.0182 18.2849 36.4177 18.4529 36.8763 18.4529C37.3349 18.4529 37.7321 18.2872 38.0636 17.958C38.395 17.6288 38.5653 17.2293 38.5653 16.7684V6.84561C38.5653 6.38704 38.3973 5.98523 38.0658 5.65378C37.7344 5.32007 37.3349 5.15208 36.8763 5.15208" fill="#0081A8"/>
<path id="Vector_4" d="M51.4052 5.07944C50.9467 5.07944 50.5448 5.24516 50.2134 5.57206C50.0091 5.77411 49.8661 6.00112 49.7866 6.25538C49.521 6.01928 49.2123 5.80816 48.8627 5.62428C48.1839 5.26332 47.3462 5.08171 46.3746 5.08171C45.6572 5.08171 44.9308 5.227 44.2134 5.51531C43.5028 5.80135 42.8377 6.21452 42.2361 6.74346C41.6232 7.28148 41.1215 7.99885 40.7401 8.87286C40.361 9.7446 40.1703 10.7253 40.1703 11.7855C40.1703 12.6504 40.2951 13.4654 40.5426 14.2077C40.7923 14.9546 41.1283 15.597 41.546 16.1169C41.9591 16.6322 42.4427 17.0794 42.9807 17.4427C43.521 17.8082 44.0863 18.0783 44.6583 18.2463C45.2282 18.4143 45.8048 18.5006 46.3723 18.5006C47.3984 18.5006 48.3224 18.2508 49.1192 17.7605C49.3734 17.6038 49.5914 17.4404 49.773 17.2724C49.8502 17.538 49.9977 17.7764 50.2089 17.9852C50.5403 18.3121 50.9421 18.4779 51.4007 18.4779C51.8593 18.4779 52.2611 18.3121 52.588 17.983C52.9171 17.6538 53.0829 17.2542 53.0829 16.7957V6.76843C53.0829 6.30759 52.9149 5.90805 52.588 5.58114C52.2588 5.25197 51.8593 5.08625 51.4007 5.08625M45.5891 15.2474C45.2213 15.0885 44.8808 14.8592 44.5744 14.5641C44.2747 14.2758 44.0272 13.8853 43.8366 13.4063C43.6436 12.9205 43.546 12.3757 43.546 11.7877C43.546 11.1998 43.6436 10.6663 43.8366 10.1873C44.0272 9.71054 44.277 9.32008 44.5766 9.02723C44.8808 8.72984 45.2213 8.49829 45.5891 8.34165C45.9523 8.18501 46.3246 8.10555 46.6947 8.10555C47.101 8.10555 47.487 8.17365 47.8434 8.31213C48.1975 8.44834 48.5312 8.65947 48.8332 8.93642C49.126 9.20657 49.3666 9.58568 49.5437 10.0624C49.7276 10.5528 49.8207 11.1339 49.8207 11.7877C49.8207 12.4415 49.7276 13.0136 49.5437 13.5085C49.3644 13.9898 49.126 14.3712 48.8377 14.6413C48.538 14.9205 48.2043 15.1317 47.8434 15.2701C47.1419 15.5403 46.3405 15.5698 45.5891 15.2474Z" fill="#0081A8"/>
<path id="Vector_5" d="M62.4631 5.10216C61.546 5.10216 60.672 5.34507 59.8615 5.8218C59.378 6.10783 58.9398 6.44382 58.5471 6.82974C58.5448 6.37798 58.3768 5.98071 58.0545 5.65154C57.7253 5.31782 57.3258 5.14756 56.8649 5.14756C56.4041 5.14756 56.0045 5.31555 55.6708 5.64926C55.3371 5.9807 55.1691 6.38252 55.1691 6.84336V16.7889C55.1691 17.2497 55.3371 17.6493 55.6708 17.9784C56.0023 18.3053 56.4041 18.4711 56.8627 18.4711C57.3212 18.4711 57.723 18.3053 58.0499 17.9762C58.3791 17.647 58.5448 17.2475 58.5448 16.7889V10.7072C58.84 9.97162 59.2917 9.38593 59.8888 8.96595C60.4994 8.53689 61.2509 8.31669 62.1249 8.31669H62.5312C63.0102 8.31669 63.4188 8.16004 63.7457 7.85357C64.0795 7.54029 64.2497 7.14983 64.2497 6.69126C64.2497 6.23269 64.0795 5.84677 63.748 5.54257C63.4257 5.24972 62.9921 5.09988 62.4631 5.09988" fill="#0081A8"/>
<path id="Vector_6" d="M75.4098 6.70262C74.7878 6.19638 74.1067 5.79683 73.3848 5.51306C72.0704 4.99774 70.8036 4.95234 69.4688 5.33826C68.874 5.51079 68.2861 5.78321 67.7162 6.14871C67.1487 6.5142 66.6311 6.95688 66.1816 7.46312C65.7231 7.98071 65.3485 8.62317 65.0715 9.37686C64.7946 10.1283 64.6538 10.9455 64.6538 11.8059C64.6538 12.6663 64.7968 13.4949 65.0783 14.2418C65.3598 14.9909 65.7367 15.6311 66.1952 16.1419C66.647 16.6459 67.1646 17.084 67.7367 17.445C68.311 17.8082 68.9013 18.0761 69.496 18.2441C70.0885 18.412 70.6765 18.496 71.2418 18.496C72.7832 18.496 74.1317 18.1078 75.235 17.3496C75.7344 17.0409 75.9977 16.5755 75.9977 16.0011C75.9977 15.5585 75.8525 15.1862 75.5687 14.8956C75.2826 14.6027 74.9103 14.4552 74.4654 14.4552C74.1476 14.4552 73.8139 14.5732 73.4552 14.8184C72.8854 15.2543 72.1498 15.4745 71.2668 15.4745C70.5449 15.4745 69.8842 15.2361 69.2486 14.7435C68.7355 14.3462 68.3996 13.8354 68.227 13.1839H75.6618C76.2883 13.1839 76.7514 13.0477 77.0783 12.7662C77.4166 12.4756 77.5891 12.0216 77.5891 11.42C77.5891 10.4529 77.3848 9.54484 76.983 8.71851C76.5812 7.89445 76.0545 7.21567 75.4189 6.69808M74.1022 10.2463H68.2702C68.3882 9.87856 68.5675 9.54711 68.8059 9.25881C69.1442 8.85245 69.5256 8.55279 69.9387 8.37118C70.3587 8.1873 70.79 8.09422 71.2214 8.09422C71.9047 8.09422 72.5267 8.31897 73.1237 8.78435C73.6005 9.15438 73.9228 9.63565 74.0999 10.244" fill="#0081A8"/>
<path id="Vector_7" d="M90.8309 7.48353C90.42 6.97048 89.9387 6.52327 89.403 6.1555C88.8649 5.78774 88.3042 5.51305 87.7321 5.34052C87.1601 5.16799 86.5835 5.08172 86.0159 5.08172C85.0375 5.08172 84.1975 5.26334 83.5165 5.62429C83.1987 5.79228 82.9149 5.9807 82.6674 6.18955V2.49829C82.6674 2.03972 82.5017 1.6379 82.1748 1.30646C81.8457 0.972752 81.4461 0.80249 80.9853 0.80249C80.5244 0.80249 80.1249 0.970486 79.7912 1.3042C79.4597 1.63564 79.2895 2.03745 79.2895 2.49829V16.7911C79.2895 17.252 79.4597 17.6515 79.7934 17.9807C80.1249 18.3076 80.5267 18.4733 80.9853 18.4733C81.4438 18.4733 81.8456 18.3076 82.1726 17.9784C82.3814 17.7696 82.5267 17.5312 82.6039 17.2656C82.7878 17.4359 83.008 17.5993 83.2645 17.756C84.0636 18.2486 84.9898 18.496 86.0159 18.496C86.5835 18.496 87.1601 18.4098 87.7299 18.2418C88.302 18.0738 88.8649 17.8014 89.4007 17.4381C89.9365 17.0749 90.4177 16.63 90.8286 16.1146C91.2463 15.5948 91.5823 14.9523 91.832 14.2054C92.0795 13.4631 92.2043 12.6481 92.2043 11.7832C92.2043 10.9183 92.0795 10.1192 91.8298 9.38138C91.58 8.64358 91.2441 8.0034 90.8264 7.48353M88.8241 11.7809C88.8241 12.3689 88.7265 12.916 88.5335 13.3995C88.3428 13.8808 88.0931 14.269 87.7957 14.5573C87.4915 14.8524 87.1487 15.0817 86.781 15.2406C86.0295 15.5653 85.2282 15.5358 84.529 15.2633C84.168 15.1249 83.832 14.9115 83.5346 14.6345C83.2441 14.3644 83.0057 13.983 82.8286 13.5017C82.6447 13.0068 82.5517 12.4279 82.5517 11.7809C82.5517 11.1339 82.6447 10.546 82.8286 10.0556C83.008 9.57888 83.2463 9.19977 83.5392 8.92962C83.8411 8.65267 84.1748 8.44154 84.529 8.30533C84.8854 8.16912 85.2713 8.09875 85.6777 8.09875C86.0477 8.09875 86.42 8.1782 86.7832 8.33484C87.151 8.49375 87.4915 8.72304 87.7957 9.02043C88.0954 9.31328 88.3451 9.70374 88.5358 10.1805C88.7287 10.6617 88.8264 11.1998 88.8264 11.7809" fill="#0081A8"/>
<path id="Vector_8" d="M104.329 5.07944C103.871 5.07944 103.469 5.24517 103.137 5.57207C102.933 5.77411 102.79 6.00113 102.711 6.25311C102.445 6.01702 102.136 5.80589 101.787 5.61974C101.108 5.25879 100.27 5.07718 99.2985 5.07718C98.5812 5.07718 97.8524 5.22247 97.1373 5.51078C96.4268 5.79682 95.7616 6.20998 95.1601 6.73892C94.5471 7.27695 94.0454 7.99431 93.664 8.86832C93.2849 9.74006 93.0942 10.7208 93.0942 11.7809C93.0942 12.6459 93.2191 13.4608 93.4665 14.2032C93.7162 14.95 94.0545 15.5925 94.4699 16.1124C94.8831 16.6277 95.3666 17.0726 95.9047 17.4381C96.445 17.8036 97.0102 18.0738 97.5823 18.2418C98.1544 18.4098 98.7287 18.496 99.2963 18.496C100.322 18.496 101.249 18.2463 102.043 17.7559C102.297 17.5993 102.515 17.4359 102.697 17.2679C102.774 17.5335 102.919 17.7718 103.133 17.9807C103.464 18.3076 103.866 18.4733 104.325 18.4733C104.783 18.4733 105.185 18.3076 105.512 17.9784C105.841 17.6493 106.007 17.2497 106.007 16.7911V6.7639C106.007 6.30306 105.841 5.90351 105.512 5.57661C105.183 5.24744 104.783 5.08172 104.325 5.08172M98.5131 15.2429C98.1453 15.084 97.8025 14.8547 97.4983 14.5596C97.1986 14.2713 96.9512 13.8808 96.7605 13.4018C96.5675 12.9183 96.4699 12.3734 96.4699 11.7832C96.4699 11.193 96.5675 10.6617 96.7605 10.1827C96.9512 9.70601 97.2009 9.31555 97.5006 9.0227C97.8048 8.72531 98.1453 8.49375 98.5131 8.33711C98.8763 8.18047 99.2486 8.10101 99.6186 8.10101C100.025 8.10101 100.411 8.16912 100.767 8.3076C101.121 8.4438 101.455 8.65493 101.757 8.93189C102.05 9.20203 102.291 9.58115 102.47 10.0579C102.654 10.5482 102.747 11.1294 102.747 11.7832C102.747 12.437 102.654 13.0091 102.47 13.504C102.291 13.9852 102.052 14.3666 101.764 14.6368C101.464 14.916 101.128 15.1271 100.77 15.2656C100.068 15.5358 99.269 15.5653 98.5153 15.2429" fill="#0081A8"/>
<path id="Vector_9" d="M118.738 5.07944C118.279 5.07944 117.877 5.24516 117.546 5.57206C117.342 5.77411 117.199 6.00112 117.119 6.25538C116.854 6.01928 116.545 5.80816 116.195 5.62201C115.516 5.26105 114.674 5.07944 113.696 5.07944C113.128 5.07944 112.552 5.16571 111.98 5.33824C111.408 5.51077 110.845 5.78546 110.309 6.15322C109.773 6.52098 109.294 6.9682 108.881 7.48126C108.463 8.00112 108.127 8.63903 107.877 9.3791C107.63 10.1146 107.503 10.9228 107.503 11.7786C107.503 12.6345 107.628 13.4586 107.875 14.2009C108.125 14.9478 108.461 15.5902 108.879 16.1101C109.292 16.6254 109.773 17.0704 110.307 17.4336C110.845 17.7991 111.405 18.0692 111.98 18.2372C112.552 18.4052 113.126 18.4915 113.694 18.4915C114.72 18.4915 115.646 18.2418 116.445 17.7514C116.672 17.6129 116.87 17.4676 117.04 17.3201V17.9512C117.04 18.6118 116.801 19.1339 116.313 19.5448C115.812 19.9671 115.131 20.1805 114.295 20.1805C113.516 20.1805 112.754 20.0488 112.043 19.7923C111.918 19.7401 111.759 19.7151 111.56 19.7151C111.16 19.7151 110.815 19.8604 110.531 20.1487C110.25 20.4347 110.107 20.7798 110.107 21.1771C110.107 21.4608 110.184 21.7242 110.336 21.9603C110.486 22.1964 110.692 22.3734 110.951 22.4915C112.009 22.9591 113.133 23.1975 114.295 23.1975C114.708 23.1975 115.137 23.1589 115.569 23.0817C115.995 23.0045 116.443 22.8865 116.901 22.7321C117.371 22.5709 117.818 22.3462 118.229 22.0647C118.636 21.7855 119.006 21.4608 119.33 21.0931C119.666 20.7139 119.934 20.2463 120.129 19.7037C120.32 19.1657 120.418 18.5732 120.418 17.9466V6.76162C120.418 6.30078 120.252 5.90124 119.923 5.57433C119.594 5.24516 119.194 5.07944 118.736 5.07944M112.924 15.2406C112.556 15.0817 112.216 14.8524 111.909 14.5573C111.612 14.269 111.362 13.8785 111.171 13.3995C110.978 12.9137 110.881 12.3689 110.881 11.7809C110.881 11.1929 110.978 10.6595 111.171 10.1805C111.362 9.70373 111.612 9.31327 111.911 9.02042C112.216 8.72303 112.556 8.49147 112.924 8.33483C113.287 8.17819 113.66 8.09874 114.03 8.09874C114.436 8.09874 114.822 8.16684 115.178 8.30532C115.532 8.44153 115.866 8.65265 116.168 8.92961C116.461 9.19976 116.702 9.57887 116.879 10.0556C117.062 10.546 117.156 11.1271 117.156 11.7809C117.156 12.4347 117.062 13.0068 116.879 13.5017C116.699 13.983 116.461 14.3643 116.173 14.6345C115.873 14.9137 115.539 15.1248 115.178 15.2633C114.477 15.5335 113.675 15.563 112.924 15.2406Z" fill="#0081A8"/>
<path id="Vector_10" d="M132.543 6.70262C131.921 6.19638 131.237 5.79683 130.515 5.51306C129.201 4.99774 127.934 4.95234 126.599 5.33826C126.007 5.51079 125.417 5.78321 124.847 6.14871C124.279 6.5142 123.762 6.95688 123.312 7.46312C122.854 7.98071 122.479 8.62317 122.202 9.37686C121.925 10.126 121.784 10.9455 121.784 11.8059C121.784 12.6663 121.927 13.4949 122.209 14.2441C122.493 14.9932 122.867 15.6334 123.326 16.1442C123.778 16.6481 124.295 17.0863 124.867 17.4472C125.442 17.8105 126.034 18.0783 126.627 18.2463C127.219 18.4143 127.807 18.4983 128.37 18.4983C129.911 18.4983 131.26 18.1101 132.363 17.3519C132.863 17.0431 133.126 16.5778 133.126 16.0034C133.126 15.5607 132.981 15.1884 132.697 14.8979C132.411 14.605 132.039 14.4574 131.594 14.4574C131.276 14.4574 130.942 14.5755 130.583 14.8207C130.014 15.2565 129.278 15.4767 128.395 15.4767C127.673 15.4767 127.013 15.2384 126.377 14.7458C125.864 14.3485 125.528 13.8377 125.355 13.1862H132.79C133.417 13.1862 133.88 13.05 134.207 12.7685C134.545 12.4756 134.717 12.0238 134.717 11.4223C134.717 10.4552 134.513 9.54712 134.109 8.72078C133.707 7.89672 133.183 7.21795 132.545 6.70035M131.228 10.2486H125.396C125.514 9.88083 125.694 9.54939 125.932 9.26108C126.27 8.85472 126.652 8.55733 127.065 8.37345C127.485 8.18957 127.916 8.09649 128.347 8.09649C129.031 8.09649 129.653 8.32124 130.25 8.78662C130.726 9.15665 131.049 9.63792 131.226 10.2463" fill="#0081A8"/>
<path id="Vector_11" d="M139.494 1.30874C139.158 0.972754 138.747 0.80249 138.275 0.80249C137.803 0.80249 137.392 0.972752 137.053 1.30646C136.713 1.64245 136.54 2.05107 136.54 2.51872V16.7639C136.54 17.2338 136.713 17.6402 137.056 17.9739C137.394 18.3031 137.805 18.4711 138.275 18.4711C138.745 18.4711 139.156 18.3031 139.491 17.9716C139.83 17.6402 140 17.2338 140 16.7639V2.51872C140 2.05107 139.83 1.64472 139.494 1.30646" fill="#0081A8"/>
</g>
</svg>
