<svg width="36" height="36" viewBox="0 0 36 36" fill="none" xmlns="http://www.w3.org/2000/svg">
<g id="Group 2">
<path id="Vector" d="M32.8105 10.6027C32.83 10.496 31.1986 9.61325 31.229 9.51139C30.9236 9.56232 30.3348 8.23572 30.0124 8.17751C28.9212 7.98228 28.6985 8.57283 28.4309 7.57121C28.1037 7.63547 28.2545 6.67387 27.9066 6.61081C26.4029 6.34161 27.0659 4.82463 27.336 3.32705C27.3993 2.97539 25.6985 2.03683 25.8761 1.75065C25.2241 1.36383 24.5829 2.00045 24.4163 1.26561C23.9114 1.26803 23.7764 1.04976 23.2715 1.04248C21.46 1.01338 19.7739 0.324616 17.9649 0.282174C16.196 0.239733 14.2507 0.346443 12.5792 0.901821C12.2969 0.995192 12.0025 1.04855 11.7033 1.04855C11.7033 1.04855 7.38692 1.02308 7.38449 1.02308C5.2543 1.02308 3.58032 2.51339 2.63992 4.41841C2.11194 5.48914 1.79928 6.37557 1.49028 7.513C1.15086 8.76199 0.947691 10.0122 0.936742 11.3303C0.93066 12.2107 0.813871 13.0328 0.840635 13.9132C0.868616 14.8251 0.658152 15.726 0.583942 16.6355C0.416057 18.6921 0.946475 20.7099 1.32482 22.7143C1.68492 24.6242 0.815087 26.3898 0.815087 28.3069C0.815087 30.2241 2.56328 32.636 4.31877 33.6242C5.28836 34.1699 6.28107 34.2451 7.30906 34.4294C8.66309 34.6719 9.7811 35.2176 11.2069 35.277C12.1485 35.3171 13.2422 35.3134 14.1838 35.2795C15.5135 35.231 16.6583 35.2928 17.9892 35.3061C19.8347 35.3243 21.8798 35.4177 23.6863 35.0976C25.6791 34.7435 27.0623 35.1582 29.0392 35.0976C31.982 35.0078 33.4237 31.5616 34.392 28.3069C34.392 28.3069 34.6305 26.9245 34.6305 26.9209C34.6305 25.8926 35.3422 25.0207 35.5088 24.0131C35.6268 23.3 35.712 22.581 35.7692 21.8582C35.813 21.2932 35.8397 20.7257 35.8507 20.1606C35.9054 17.3243 35.7643 16.7289 35.3653 13.9981C35.1913 14.0005 34.2047 13.302 34.0271 13.2705C32.5234 13.0013 32.5404 12.1015 32.8105 10.6027Z" fill="#01AFBA"/>
<path id="Vector_2" d="M34.3918 28.3068C34.3918 28.3068 34.6303 26.9244 34.6303 26.9207C34.6303 25.8924 35.3419 25.0206 35.5086 24.0129C35.6266 23.2999 35.7118 22.5808 35.769 21.8581C35.8128 21.293 35.8395 20.7255 35.8505 20.1604C35.9052 17.3241 35.7641 16.7287 35.3651 13.9979C35.1972 14.0003 34.2823 13.3576 34.0536 13.2788C34.2045 15.4336 34.4514 18.4349 34.0268 21.3948C33.404 25.7409 32.0536 26.6855 30.9855 30.4895C30.1339 33.521 28.0657 32.7934 23.9294 32.4297C19.4209 32.0331 16.1435 33.8848 9.69574 32.0659C7.0327 31.3153 4.10324 31.6657 0.959656 29.352C1.41221 31.0679 2.86235 32.8044 4.31978 33.6241C5.28938 34.1698 6.28209 34.2449 7.31007 34.4293C8.6641 34.6718 9.78211 35.2175 11.2079 35.2769C12.1495 35.3169 13.2432 35.3133 14.1848 35.2793C15.5145 35.2308 16.6593 35.2926 17.9902 35.306C19.8357 35.3242 21.8808 35.4175 23.6873 35.0974C25.6801 34.7433 27.0633 35.158 29.0402 35.0974C31.983 35.0077 33.4247 31.5614 34.393 28.3068" fill="#FDFCDD"/>
<path id="Vector_3" d="M11.7638 21.5161C17.8466 14.3616 21.3746 17.2719 25.0243 18.6058C24.2943 12.5427 19.4427 9.92226 14.5619 11.4514C10.304 12.7852 9.20906 18.7271 11.7638 21.5161Z" fill="#FDFCDD"/>
<path id="Vector_4" d="M16.4793 35.796C15.0681 35.7451 13.6581 35.6602 12.2518 35.5074C8.80041 35.1327 3.49623 34.5603 1.31129 31.4548C-0.17412 29.3424 -0.0597641 26.4419 0.0716239 23.9912C0.240725 20.8408 0.153132 17.6819 0.336832 14.5315C0.633672 9.45189 1.71032 0.394865 8.32109 0.0189543C9.60699 -0.0538026 10.8929 0.102625 12.1788 0.15598C14.5 0.251777 16.8187 0.0141039 19.1399 0.0698842C21.4489 0.125665 23.5621 0.923566 25.8371 1.08848C26.0427 1.10303 26.2482 1.1188 26.4551 1.13699C26.7239 1.16245 26.9393 1.36981 26.9733 1.6378C27.0487 2.22592 27.3687 2.76674 27.8529 3.11961C27.9782 3.21056 28.0609 3.3488 28.0828 3.50159C28.1047 3.65438 28.0646 3.80959 27.9709 3.93207C27.803 4.15276 27.6801 4.39771 27.6059 4.66085C27.449 5.22229 27.5195 5.81041 27.8054 6.31728C28.0925 6.82537 28.5597 7.19037 29.1218 7.34801C29.3797 7.41955 29.651 7.44259 29.9247 7.41591C30.2276 7.3856 30.5013 7.59538 30.5512 7.8949C30.6899 8.72796 31.3055 9.41309 32.1181 9.63985C32.3566 9.70654 32.6072 9.7308 32.8639 9.71261C33.0634 9.69806 33.2556 9.78779 33.3724 9.94907C33.679 10.3698 33.2082 11.3315 33.3724 11.8977C33.595 12.6593 34.2471 13.3165 35.0415 13.4596C35.2349 13.4948 35.4491 13.5093 35.5938 13.6427C35.7422 13.7797 35.7714 13.9992 35.7921 14.1993C36.1121 17.34 36.0658 20.5182 35.6315 23.6456C35.415 25.2062 35.1023 26.7523 34.6972 28.2753C34.4855 29.072 34.2337 29.8529 33.9868 30.6387C33.8055 31.2171 33.8079 31.8562 33.5403 32.4007C32.7301 34.0498 31.3833 35.3303 29.5585 35.7608C28.196 36.0809 26.7774 36.0033 25.3784 35.956C22.4137 35.8566 19.4416 35.9039 16.4769 35.7984M12.871 34.4609C15.0608 34.6658 17.2555 34.8647 19.4562 34.8416C21.6947 34.8186 23.7993 34.5664 26.0439 34.7786C26.5828 34.8295 27.1388 34.8817 27.7032 34.918C30.2446 35.0817 32.6936 32.9281 32.9442 30.3101L33.078 28.9107C33.1449 28.2171 33.4539 27.6484 33.7532 27.0991C33.9576 26.7244 34.1498 26.3715 34.2459 26.0077C35.0829 22.8634 35.1109 19.7616 34.8371 16.5445C34.7824 15.9018 34.7264 15.2409 34.6863 14.5788C34.6437 14.5691 34.6011 14.5582 34.5585 14.5461C32.9138 14.0865 31.9004 12.4713 32.1546 10.8294C32.0366 10.81 31.9198 10.7846 31.8043 10.7518C30.7252 10.4511 29.8748 9.62287 29.5305 8.5776C29.2872 8.56547 29.0451 8.52667 28.8079 8.45997C27.9478 8.21988 27.2337 7.66086 26.7957 6.88479C26.3577 6.10871 26.2495 5.21016 26.4903 4.35284C26.5548 4.12366 26.6424 3.90418 26.7543 3.69561C26.359 3.29302 26.0694 2.79463 25.9186 2.25259C25.8626 2.24774 25.8054 2.2441 25.7495 2.24047C25.4392 2.21743 25.129 2.1956 24.8212 2.16043C22.9794 1.9555 21.2774 1.18792 19.4246 1.10546C17.4647 1.01694 15.5219 1.39285 13.5693 1.48258C10.2189 1.63658 6.20428 0.0541203 4.03029 3.56828C3.65681 4.17216 3.62518 4.81364 3.43175 5.46724C3.2371 6.12448 2.85389 6.71502 2.62152 7.37347C2.07772 8.91228 1.95485 10.5627 1.77359 12.173C1.50108 14.5873 1.08137 17.0089 1.20302 19.4475C1.32589 21.9018 1.55339 24.1367 1.30764 26.6153L1.24073 27.2931C1.07042 29.0732 1.91106 30.8849 3.3843 31.9095C3.95365 32.3061 4.5084 32.4273 5.15074 32.568C5.4123 32.625 5.68359 32.6844 5.97313 32.7657C7.02424 33.0603 7.9476 33.663 9.03277 33.9249C10.2347 34.2147 11.472 34.3311 12.7007 34.4463C12.7566 34.4512 12.8138 34.4573 12.8698 34.4621" fill="#0081A8"/>
<path id="Vector_5" d="M24.4672 19.279C24.1764 22.3202 21.0109 24.5065 17.3978 24.1634C13.7846 23.819 11.0923 21.076 11.3831 18.0348C11.6751 14.9936 14.8393 12.8072 18.4525 13.1504C22.0657 13.4948 24.7579 16.2377 24.4659 19.2802" fill="white"/>
<path id="Vector_6" d="M18.5085 12.5769C14.5851 12.2034 11.1313 14.6274 10.8101 17.9791C10.4889 21.3308 13.4196 24.3623 17.3442 24.7358C21.2688 25.1093 24.7214 22.6852 25.0426 19.3336C25.3638 15.9807 22.4331 12.9504 18.5085 12.5769ZM17.4306 14.4516C22.4696 13.9981 23.3771 16.9071 23.6618 18.9031C23.9294 20.7887 22.5195 21.9007 21.337 22.7447C19.7202 23.8991 17.5754 23.8287 15.6982 23.1788C13.7201 22.4937 12.04 21.1998 12.478 18.2495C12.8588 15.6788 15.0924 14.6626 17.4318 14.4528" fill="#0081A8"/>
<path id="Vector_7" d="M28.0549 21.6386C27.9406 22.1939 27.6255 22.5977 27.3505 22.542C27.0756 22.4862 26.9454 21.9902 27.0586 21.4361C27.1729 20.8819 27.488 20.4769 27.7629 20.5327C28.0379 20.5884 28.1681 21.0844 28.0549 21.6386Z" fill="#FDFCDD"/>
<path id="Vector_8" d="M27.7763 21.5816C27.662 22.137 27.3469 22.5408 27.0719 22.485C26.797 22.4292 26.6668 21.9333 26.78 21.3791C26.8943 20.8237 27.2094 20.4199 27.4843 20.4757C27.7593 20.5315 27.8895 21.0274 27.7763 21.5816Z" fill="#0081A8"/>
<path id="Vector_9" d="M27.3917 27.8134C27.8735 28.1129 28.1448 28.5482 27.9964 28.7859C27.8479 29.0235 27.337 28.9738 26.854 28.6743C26.371 28.3748 26.101 27.9395 26.2494 27.7018C26.3978 27.4641 26.9088 27.5138 27.3917 27.8134Z" fill="#FDFCDD"/>
<path id="Vector_10" d="M27.2411 28.0545C27.7241 28.354 27.9941 28.7894 27.8457 29.027C27.6973 29.2647 27.1863 29.215 26.7034 28.9155C26.2216 28.6159 25.9503 28.1806 26.0987 27.9429C26.2472 27.7053 26.7581 27.755 27.2411 28.0545Z" fill="#0081A8"/>
<path id="Vector_11" d="M32.6231 22.4947C32.5087 23.0501 32.1936 23.4539 31.9187 23.3981C31.6438 23.3423 31.5136 22.8464 31.6279 22.291C31.7423 21.7368 32.0574 21.3318 32.3323 21.3888C32.6073 21.4446 32.7374 21.9405 32.6243 22.4947" fill="#FDFCDD"/>
<path id="Vector_12" d="M32.343 22.4378C32.2287 22.9932 31.9136 23.397 31.6386 23.3412C31.3637 23.2854 31.2335 22.7895 31.3467 22.2341C31.461 21.6799 31.7761 21.2749 32.0511 21.3307C32.326 21.3865 32.4562 21.8824 32.343 22.4366" fill="#0081A8"/>
<path id="Vector_13" d="M27.7594 13.513C27.645 14.0683 27.3299 14.4721 27.055 14.4164C26.78 14.3606 26.6487 13.8646 26.763 13.3105C26.8774 12.7551 27.1925 12.3513 27.4674 12.4071C27.7423 12.4628 27.8737 12.9588 27.7594 13.513Z" fill="#FDFCDD"/>
<path id="Vector_14" d="M27.4796 13.4558C27.3652 14.0112 27.0501 14.415 26.7752 14.3592C26.5002 14.3035 26.3701 13.8075 26.4844 13.2533C26.5988 12.698 26.9139 12.2942 27.1888 12.3499C27.4637 12.4057 27.5939 12.9017 27.4808 13.4558" fill="#0081A8"/>
<path id="Vector_15" d="M19.1412 28.6524C19.0269 29.2078 18.7118 29.6116 18.4368 29.5558C18.1619 29.5 18.0317 29.004 18.1449 28.4499C18.2592 27.8945 18.5743 27.4907 18.8492 27.5465C19.1242 27.6022 19.2544 28.0982 19.1412 28.6524Z" fill="#FDFCDD"/>
<path id="Vector_16" d="M18.8612 28.5954C18.7468 29.1508 18.4317 29.5546 18.1568 29.4988C17.8819 29.4431 17.7505 28.9471 17.8648 28.3929C17.9792 27.8388 18.2943 27.4338 18.5692 27.4895C18.8441 27.5453 18.9755 28.0413 18.8612 28.5954Z" fill="#0081A8"/>
<path id="Vector_17" d="M23.1608 9.35964C22.752 9.64218 22.3055 9.70887 22.1656 9.50636C22.0257 9.30507 22.2435 8.91218 22.6522 8.62843C23.0622 8.34589 23.5075 8.2792 23.6474 8.4817C23.7873 8.68421 23.5695 9.07589 23.1608 9.35964Z" fill="#FDFCDD"/>
<path id="Vector_18" d="M23.0182 9.15483C22.6094 9.43737 22.1629 9.50407 22.023 9.30156C21.8831 9.10027 22.1009 8.70738 22.5097 8.42363C22.9196 8.14109 23.3649 8.07439 23.5048 8.2769C23.6447 8.47941 23.4269 8.87108 23.0182 9.15483Z" fill="#0081A8"/>
<path id="Vector_19" d="M12.6911 26.6575C12.1546 26.8455 11.6448 26.7837 11.5511 26.5205C11.4575 26.2562 11.8164 25.89 12.3529 25.702C12.8894 25.514 13.3991 25.5759 13.4928 25.839C13.5864 26.1034 13.2276 26.4696 12.6911 26.6575Z" fill="#FDFCDD"/>
<path id="Vector_20" d="M12.5971 26.3896C12.0606 26.5776 11.5509 26.5157 11.4572 26.2526C11.3635 25.9882 11.7224 25.622 12.2589 25.4341C12.7954 25.2461 13.3051 25.3079 13.3988 25.5711C13.4925 25.8354 13.1336 26.2016 12.5971 26.3896Z" fill="#0081A8"/>
<path id="Vector_21" d="M5.9889 21.2229C5.49498 20.9428 5.20666 20.5184 5.34534 20.2759C5.48403 20.0321 5.99742 20.0624 6.49134 20.3413C6.98526 20.6214 7.27358 21.0459 7.1349 21.2884C6.99621 21.5321 6.48282 21.5018 5.9889 21.2229Z" fill="#FDFCDD"/>
<path id="Vector_22" d="M6.13011 20.9755C5.63619 20.6954 5.34786 20.2709 5.48655 20.0284C5.62524 19.7847 6.13862 19.815 6.63254 20.0939C7.12647 20.374 7.41479 20.7984 7.2761 21.041C7.13742 21.2847 6.62403 21.2544 6.13011 20.9755Z" fill="#0081A8"/>
<path id="Vector_23" d="M5.91465 12.6543C5.50954 12.2565 5.34044 11.7727 5.53752 11.5738C5.7346 11.3738 6.22244 11.535 6.62756 11.9316C7.03267 12.3281 7.20177 12.8119 7.00469 13.012C6.80761 13.2121 6.31977 13.052 5.91465 12.6543Z" fill="#FDFCDD"/>
<path id="Vector_24" d="M6.11409 12.4508C5.70897 12.0542 5.53987 11.5704 5.73695 11.3703C5.93404 11.1702 6.42187 11.3315 6.82699 11.728C7.2321 12.1246 7.4012 12.6084 7.20412 12.8085C7.00704 13.0086 6.5192 12.8473 6.11409 12.4508Z" fill="#0081A8"/>
<path id="Vector_25" d="M7.32822 30.3065C6.88783 30.6642 6.38539 30.777 6.20899 30.56C6.03259 30.3429 6.24549 29.8773 6.6871 29.5195C7.12871 29.1618 7.62993 29.049 7.80633 29.2661C7.98395 29.4832 7.76983 29.9488 7.32822 30.3065Z" fill="#FDFCDD"/>
<path id="Vector_26" d="M7.14814 30.0859C6.70775 30.4436 6.20653 30.5564 6.02891 30.3393C5.85251 30.1223 6.06541 29.6566 6.50702 29.2989C6.94863 28.9412 7.44985 28.8284 7.62625 29.0455C7.80386 29.2625 7.58975 29.7282 7.14814 30.0859Z" fill="#0081A8"/>
<path id="Vector_27" d="M8.66652 5.99482C8.11055 5.87599 7.70909 5.55707 7.76748 5.28302C7.82709 5.00896 8.32467 4.88407 8.88063 5.00411C9.4366 5.12295 9.83806 5.44187 9.77967 5.71592C9.72006 5.98997 9.22248 6.11487 8.66652 5.99603" fill="#FDFCDD"/>
<path id="Vector_28" d="M8.72609 5.71598C8.17012 5.59715 7.76866 5.27823 7.82705 5.00418C7.88666 4.73013 8.38423 4.60523 8.9402 4.72528C9.49617 4.84411 9.89763 5.16303 9.83923 5.43708C9.77962 5.71113 9.28205 5.83603 8.72609 5.7172" fill="#0081A8"/>
<path id="Vector_29" d="M18.9573 4.66215C18.3916 4.72036 17.9099 4.5421 17.8819 4.2632C17.8527 3.9843 18.2882 3.71146 18.8527 3.65326C19.4184 3.59505 19.9001 3.7733 19.9281 4.05221C19.9573 4.33111 19.5218 4.60395 18.9573 4.66215Z" fill="#FDFCDD"/>
<path id="Vector_30" d="M18.9284 4.37953C18.3627 4.43773 17.8809 4.25948 17.8529 3.98058C17.8238 3.70168 18.2593 3.42884 18.8238 3.37063C19.3895 3.31243 19.8712 3.49068 19.8992 3.76958C19.9284 4.04848 19.4929 4.32132 18.9284 4.37953Z" fill="#0081A8"/>
<path id="Vector_31" d="M14.1436 8.82021C14.0451 9.29919 13.7725 9.64843 13.5353 9.59992C13.2981 9.55142 13.185 9.12336 13.2835 8.64438C13.382 8.1654 13.6545 7.81616 13.8918 7.86467C14.129 7.91317 14.2421 8.34123 14.1436 8.82021Z" fill="#FDFCDD"/>
<path id="Vector_32" d="M13.9014 8.77047C13.8029 9.24945 13.5304 9.59868 13.2932 9.55018C13.0559 9.50167 12.9428 9.07362 13.0413 8.59464C13.1399 8.11565 13.4124 7.76642 13.6496 7.81492C13.8868 7.86343 14 8.29148 13.9014 8.77047Z" fill="#0081A8"/>
<path id="Vector_33" d="M31.7751 15.8133C31.6912 16.2183 31.4613 16.513 31.2605 16.4717C31.0598 16.4305 30.9649 16.0691 31.0476 15.6641C31.1316 15.2591 31.3615 14.9645 31.5622 15.0057C31.763 15.0469 31.8579 15.4083 31.7751 15.8133Z" fill="#FDFCDD"/>
<path id="Vector_34" d="M31.5707 15.7721C31.4867 16.1771 31.2568 16.4718 31.0561 16.4305C30.8553 16.3893 30.7604 16.0279 30.8432 15.6229C30.9271 15.2179 31.157 14.9233 31.3578 14.9645C31.5585 15.0057 31.6534 15.3671 31.5707 15.7721Z" fill="#0081A8"/>
</g>
</svg>
